<?xml version="1.0" encoding="UTF-8"?>
<svg version="1.1" xmlns="http://www.w3.org/2000/svg" width="110" height="134">
<path d="M0 0 C1.50240234 0.7115625 1.50240234 0.7115625 3.03515625 1.4375 C3.93524414 1.83316162 3.93524414 1.83316162 4.85351562 2.23681641 C6.91057229 3.14485413 8.94180925 4.09732883 10.97265625 5.0625 C11.7097583 5.41078857 12.44686035 5.75907715 13.20629883 6.11791992 C19.49454016 9.11908014 25.64667055 12.34539706 31.765625 15.67578125 C34.82363188 17.3235245 37.92820097 18.88402236 41.03515625 20.4375 C41.03515625 37.5975 41.03515625 54.7575 41.03515625 72.4375 C21.0760441 83.00408879 21.0760441 83.00408879 11.78515625 87.4375 C10.80675781 87.91316406 9.82835937 88.38882813 8.8203125 88.87890625 C7.87542969 89.33136719 6.93054688 89.78382812 5.95703125 90.25 C5.1278418 90.64832031 4.29865234 91.04664062 3.44433594 91.45703125 C0.93557765 92.47802571 -1.27344473 93.12498768 -3.96484375 93.4375 C-6.37880385 92.3940271 -8.46817947 91.32701898 -10.71484375 90 C-12.04476723 89.25145113 -13.37688949 88.50679826 -14.7109375 87.765625 C-15.75096924 87.18651367 -15.75096924 87.18651367 -16.81201172 86.59570312 C-21.05134738 84.31498092 -25.43170054 82.33145128 -29.80175781 80.31665039 C-35.25505429 77.79620242 -40.58100773 75.12941801 -45.96484375 72.4375 C-45.96484375 55.2775 -45.96484375 38.1175 -45.96484375 20.4375 C-41.01484375 18.1275 -36.06484375 15.8175 -30.96484375 13.4375 C-30.96484375 29.9375 -30.96484375 46.4375 -30.96484375 63.4375 C-29.31484375 63.7675 -27.66484375 64.0975 -25.96484375 64.4375 C-24.24047639 65.22577257 -22.54409621 66.07715477 -20.875 66.9765625 C-19.92560547 67.47414063 -18.97621094 67.97171875 -17.99804688 68.484375 C-16.01737283 69.53656739 -14.0407813 70.596481 -12.06835938 71.6640625 C-11.11767578 72.1590625 -10.16699219 72.6540625 -9.1875 73.1640625 C-8.32906494 73.62377441 -7.47062988 74.08348633 -6.58618164 74.55712891 C-2.72218141 75.85484567 0.27914781 75.15344473 3.99804688 73.63720703 C4.55685547 73.32638184 5.11566406 73.01555664 5.69140625 72.6953125 C6.63693359 72.17904297 6.63693359 72.17904297 7.6015625 71.65234375 C8.55869141 71.11287109 8.55869141 71.11287109 9.53515625 70.5625 C10.816026 69.85608093 12.09727148 69.15034267 13.37890625 68.4453125 C13.99378906 68.10661133 14.60867187 67.76791016 15.2421875 67.41894531 C22.51575326 63.4375 22.51575326 63.4375 26.03515625 63.4375 C25.70515625 52.5475 25.37515625 41.6575 25.03515625 30.4375 C14.53074698 24.73322005 14.53074698 24.73322005 3.84765625 19.375 C3.00847656 18.97152344 2.16929688 18.56804688 1.3046875 18.15234375 C-3.20854527 16.73079195 -7.03364019 19.22753327 -11.21484375 21 C-13.11234375 21.804375 -15.00984375 22.60875 -16.96484375 23.4375 C-16.96484375 17.8275 -16.96484375 12.2175 -16.96484375 6.4375 C-14.77859375 5.24125 -12.59234375 4.045 -10.33984375 2.8125 C-9.66356934 2.42884277 -8.98729492 2.04518555 -8.29052734 1.64990234 C-5.22795697 0.04951986 -3.42316151 -0.64945357 0 0 Z " fill="#4494BB" transform="translate(57.96484375,26.5625)"/>
<path d="M0 0 C1.50240234 0.7115625 1.50240234 0.7115625 3.03515625 1.4375 C3.93524414 1.83316162 3.93524414 1.83316162 4.85351562 2.23681641 C6.91057229 3.14485413 8.94180925 4.09732883 10.97265625 5.0625 C12.07830933 5.58493286 12.07830933 5.58493286 13.20629883 6.11791992 C19.49454016 9.11908014 25.64667055 12.34539706 31.765625 15.67578125 C34.82746581 17.32559034 37.916052 18.89924677 41.03515625 20.4375 C41.03515625 21.0975 41.03515625 21.7575 41.03515625 22.4375 C34.60015625 25.9025 34.60015625 25.9025 28.03515625 29.4375 C27.70515625 40.6575 27.37515625 51.8775 27.03515625 63.4375 C26.70515625 63.4375 26.37515625 63.4375 26.03515625 63.4375 C25.70515625 52.5475 25.37515625 41.6575 25.03515625 30.4375 C14.53074698 24.73322005 14.53074698 24.73322005 3.84765625 19.375 C3.00847656 18.97152344 2.16929688 18.56804688 1.3046875 18.15234375 C-3.20854527 16.73079195 -7.03364019 19.22753327 -11.21484375 21 C-13.11234375 21.804375 -15.00984375 22.60875 -16.96484375 23.4375 C-16.96484375 17.8275 -16.96484375 12.2175 -16.96484375 6.4375 C-14.77859375 5.24125 -12.59234375 4.045 -10.33984375 2.8125 C-9.66356934 2.42884277 -8.98729492 2.04518555 -8.29052734 1.64990234 C-5.22795697 0.04951986 -3.42316151 -0.64945357 0 0 Z " fill="#40A1D0" transform="translate(57.96484375,26.5625)"/>
<path d="M0 0 C0.86238281 0.27714844 1.72476563 0.55429687 2.61328125 0.83984375 C5.88403784 2.21383909 7.69255646 3.27739143 10 6 C11.89369234 11.70272748 12.01243896 18.31961674 10 24 C6.4980341 27.7231995 2.82992175 29.45466744 -2 31 C-2.8146875 31.27328125 -3.629375 31.5465625 -4.46875 31.828125 C-9.33613499 32.15862645 -13.35963412 29.71907102 -17.23828125 26.984375 C-20.36649636 24.17914382 -21.05767761 21.45722791 -21.46240234 17.34863281 C-21.54938485 11.77045629 -21.41920468 7.5928431 -17.60546875 3.3125 C-11.46776147 -0.63140829 -6.91206003 -2.89049783 0 0 Z " fill="#489AC3" transform="translate(61,58)"/>
<path d="M0 0 C0.94875 0.556875 1.8975 1.11375 2.875 1.6875 C3.65359375 2.10644531 4.4321875 2.52539062 5.234375 2.95703125 C7.47214581 4.16278664 9.67845051 5.40862007 11.875 6.6875 C10.53186779 10.71689664 8.68461157 11.31766687 5.0625 13.4375 C4.00417969 14.07171875 2.94585937 14.7059375 1.85546875 15.359375 C-1.125 16.6875 -1.125 16.6875 -3.12109375 16.61328125 C-5.98679696 15.28935988 -8.66564293 13.74472434 -11.375 12.125 C-12.99148437 11.16400391 -12.99148437 11.16400391 -14.640625 10.18359375 C-15.46046875 9.68988281 -16.2803125 9.19617188 -17.125 8.6875 C-12.97142556 4.08939585 -6.32112349 -0.63211235 0 0 Z " fill="#3FA1D0" transform="translate(58.125,56.3125)"/>
<path d="M0 0 C1.436639 12.57059123 1.436639 12.57059123 0 18 C-3.46899536 21.72243794 -7.16754484 23.51209547 -12 25 C-12.99 25 -13.98 25 -15 25 C-16.37346893 10.72270569 -16.37346893 10.72270569 -13.171875 6.70703125 C-10.83786674 5.20383719 -8.55940728 4.06749148 -6 3 C-5.01 2.38125 -4.02 1.7625 -3 1.125 C-1 0 -1 0 0 0 Z " fill="#418EB4" transform="translate(71,64)"/>
<path d="M0 0 C0 5.28 0 10.56 0 16 C-3.57128086 14.57148766 -6.89752272 13.10525515 -10.3125 11.375 C-11.19550781 10.92898437 -12.07851562 10.48296875 -12.98828125 10.0234375 C-13.65214844 9.68570313 -14.31601563 9.34796875 -15 9 C-15 8.34 -15 7.68 -15 7 C-12.68868934 5.83092416 -10.37604377 4.66464108 -8.0625 3.5 C-7.40314453 3.16613281 -6.74378906 2.83226562 -6.06445312 2.48828125 C-1.11328125 0 -1.11328125 0 0 0 Z " fill="#43A2D1" transform="translate(27,40)"/>
<path d="" fill="#00FFFF" transform="translate(0,0)"/>
</svg>
